<svg width="current" height="current" viewBox="0 0 530 530" fill="none" xmlns="http://www.w3.org/2000/svg">
<path d="M306.779 138.57C306.779 138.57 330.793 112.905 361.003 128.348C388.444 142.37 400.194 182.85 368.67 215.787C335.214 250.764 266.216 264.934 266.216 264.934C266.216 264.934 227.256 224.622 214.607 182.08C200.496 134.706 224.657 92.348 264.529 97.1313C292.043 100.431 304.036 123.149 306.779 138.57Z" fill="#FF7B54" stroke="#FF7B54" stroke-miterlimit="10" stroke-linecap="square" stroke-linejoin="round"/>
<path d="M90.466 193.664L177.965 247.632L265.464 301.601L174.968 350.392L84.502 399.168L87.4691 296.424L90.466 193.664Z" fill="#FFB26B" stroke="#FFB26B" stroke-miterlimit="10" stroke-linecap="round" stroke-linejoin="round"/>
<path d="M454.306 388.064C431.937 433.027 377.352 451.344 332.389 428.975C287.425 406.605 269.108 352.021 291.478 307.057C313.847 262.093 368.431 243.777 413.395 266.146C458.359 288.515 476.675 343.1 454.306 388.064Z" fill="#FFD56F" stroke="#FFD56F"/>
</svg>
